<svg width="32" height="45" viewBox="0 0 32 45" fill="none" xmlns="http://www.w3.org/2000/svg">
<g clip-path="url(#clip0_106_1018)">
<path d="M22.7527 1.12467C23.1254 1.57979 23.3155 2.19393 23.6956 3.4222L32 30.2549C28.9296 28.6882 25.5918 27.5583 22.0718 26.9487L16.6648 8.97644C16.5763 8.68237 16.3017 8.48064 15.9899 8.48064C15.6773 8.48064 15.4022 8.68342 15.3145 8.9785L9.97297 26.9396C6.43652 27.5465 3.0835 28.6785 0 30.2508L8.3451 3.41599C8.7264 2.18983 8.91707 1.57675 9.28983 1.12246C9.61887 0.721401 10.0469 0.409928 10.5331 0.21772C11.0838 0 11.7356 0 13.0392 0H18.9996C20.305 0 20.9576 0 21.5088 0.218174C21.9954 0.410781 22.4237 0.722884 22.7527 1.12467Z" fill="#E23B3B" fill-opacity="0.67"/>
<path d="M23.7465 31.532C22.3775 32.6834 19.645 33.4687 16.4976 33.4687C12.6345 33.4687 9.39665 32.2857 8.53747 30.6948C8.23031 31.6066 8.16144 32.6501 8.16144 33.3167C8.16144 33.3167 7.95905 36.59 10.2736 38.8667C10.2736 37.6845 11.248 36.7262 12.4498 36.7262C14.5098 36.7262 14.5075 38.4939 14.5056 39.9281C14.5055 39.9711 14.5055 40.0138 14.5055 40.0561C14.5055 42.233 15.8581 44.0991 17.7817 44.8856C17.4944 44.3044 17.3332 43.6517 17.3332 42.9619C17.3332 40.8857 18.5724 40.1127 20.0126 39.2142C21.1585 38.4994 22.4317 37.7052 23.3092 36.1119C23.767 35.2807 24.0269 34.3286 24.0269 33.3167C24.0269 32.6945 23.9286 32.0948 23.7465 31.532Z" fill="#E23B3B" fill-opacity="0.67"/>
</g>
<defs>
<clipPath id="clip0_106_1018">
<rect width="32" height="45" fill="white"/>
</clipPath>
</defs>
</svg>
