<svg width="46" height="55" viewBox="0 0 46 55" fill="none" xmlns="http://www.w3.org/2000/svg">
<path d="M9.27846 2.06417C11.0295 1.77609 13.4845 2.43384 16.6567 4.52692L17.2588 4.93737L17.613 5.19231L18.4918 4.98071C21.8428 4.23498 25.281 4.16596 28.6526 4.77676L29.662 4.98071L30.5386 5.19231L30.895 4.93737C33.961 2.79586 36.4004 1.95455 38.2489 2.01064L38.6119 2.03103L38.9373 2.07437L39.1056 2.11006L39.2162 2.13811L39.535 2.25793C40.0569 2.50639 40.4766 2.97517 40.7083 3.56833C41.6141 5.89264 41.9192 8.46833 41.5871 10.9871L41.4831 11.6678L41.3812 12.1675L41.6535 12.5831C42.9242 14.6099 43.7122 16.9885 43.9336 19.4844L43.9845 20.2364L44 20.9299C44 30.7579 40.3275 35.9281 33.7197 37.96L33.1773 38.1155L32.8851 38.1895L32.9161 38.5999L32.9338 39.0002L32.9427 39.9307L32.9383 40.4738L32.9316 50.2482C32.9315 50.8727 32.7325 51.4754 32.3722 51.942C32.0119 52.4086 31.5154 52.7067 30.9769 52.7798L30.7179 52.7977H17.4359C16.8937 52.7976 16.3703 52.5683 15.9652 52.1534C15.56 51.7384 15.3011 51.1667 15.2377 50.5465L15.2222 50.2482V48.377C11.1977 49.0398 8.51474 47.296 6.12397 43.5891L4.93966 41.6363C4.31983 40.6267 3.93243 40.1602 3.6358 39.9945L3.52954 39.946C2.98146 39.7409 2.52444 39.2977 2.25561 38.7107C1.98678 38.1236 1.92734 37.4389 2.08992 36.8022C2.2525 36.1654 2.62428 35.6268 3.12625 35.3008C3.62822 34.9748 4.22081 34.887 4.77806 35.0562C6.19924 35.5355 7.15555 36.5043 8.25353 38.215L9.44449 40.1755C11.1269 42.9263 12.4551 43.8951 15.22 43.2118L15.2222 41.4833L15.1823 41.055C15.117 40.3574 15.1014 39.6548 15.1359 38.9543L15.1735 38.4827L15.2155 38.1767L14.9765 38.1155C8.38857 36.3054 4.56554 31.5559 4.18479 22.4646L4.16265 21.6743L4.1538 20.9299C4.15636 18.1678 4.85458 15.4659 6.16382 13.1516L6.5003 12.5856L6.77037 12.1701L6.67075 11.6704C6.27166 9.43089 6.38224 7.11058 6.99173 4.93482L7.2131 4.21589L7.44775 3.57088C7.67885 2.97819 8.09772 2.50948 8.61879 2.26048L8.93756 2.14066L9.27846 2.06417Z" fill="url(#paint0_linear_103_334)" stroke="url(#paint1_linear_103_334)" stroke-width="2" stroke-linecap="round" stroke-linejoin="round"/>
<path opacity="0.2" d="M9.05955 1.08843C9.0783 1.08422 9.09716 1.08056 9.11612 1.07744C11.2356 0.728739 13.9555 1.54658 17.2074 3.69224L17.2199 3.70064L17.822 4.11109C17.8229 4.11166 17.8237 4.11223 17.8245 4.1128L18.2577 4.0085L18.2746 4.00459C21.7554 3.22998 25.3279 3.15819 28.8308 3.79278L28.8506 3.79657L29.8601 4.00052C29.8723 4.00299 29.8845 4.0057 29.8967 4.00863L30.329 4.11298C33.4687 1.92113 36.1211 0.945613 38.2792 1.0111C38.2878 1.01136 38.2964 1.01173 38.305 1.01221L38.668 1.03261C38.6934 1.03403 38.7187 1.03643 38.7439 1.03979L39.0693 1.08313C39.0947 1.0865 39.1199 1.09084 39.1448 1.09614L39.3131 1.13184C39.3258 1.13454 39.3385 1.13749 39.3512 1.14069L39.4618 1.16874C39.4979 1.17786 39.5333 1.18898 39.5681 1.20205L39.8869 1.32188C39.9133 1.33182 39.9393 1.34288 39.9648 1.35503C40.7407 1.72436 41.3258 2.40063 41.6398 3.20459L41.64 3.20521C42.6082 5.68948 42.9322 8.43526 42.5785 11.1179L42.5756 11.1382L42.4716 11.8189C42.4691 11.8352 42.4662 11.8514 42.4629 11.8675L42.4433 11.9638L42.4899 12.035L42.5008 12.0519C43.8588 14.2181 44.695 16.7496 44.9297 19.396L44.9313 19.4168L44.9822 20.1689C44.9832 20.184 44.9839 20.199 44.9843 20.2141L44.9998 20.9075L45 20.9299C45 25.9583 44.0618 29.9135 42.1844 32.9006C40.2936 35.9092 37.5095 37.8409 34.0136 38.9159L33.9953 38.9213L33.9321 38.9394L33.9328 38.956C33.9334 38.9675 33.9337 38.9791 33.9338 38.9907L33.9426 39.9212L33.9426 39.9389L33.9383 40.4744L33.9382 40.4819L33.9316 50.2483C33.9316 50.2485 33.9316 50.2487 33.9316 50.2489C33.9314 51.0803 33.6673 51.9009 33.1637 52.5531C32.6578 53.2084 31.9336 53.6592 31.1114 53.7707C31.0896 53.7737 31.0676 53.7759 31.0457 53.7774L30.7867 53.7953C30.7638 53.7969 30.7409 53.7977 30.7179 53.7977H17.4359H17.4357C16.6041 53.7975 15.8284 53.4447 15.2497 52.852C14.6744 52.2629 14.3275 51.4752 14.2429 50.6483C14.2412 50.6317 14.2399 50.615 14.239 50.5984L14.2235 50.3001C14.2226 50.2828 14.2222 50.2655 14.2222 50.2482V49.4962C12.5011 49.6009 10.9665 49.2674 9.57557 48.4963C7.90353 47.5693 6.52621 46.0578 5.2836 44.1312C5.28084 44.1269 5.27811 44.1226 5.27542 44.1183C5.27323 44.1147 5.27107 44.1112 5.26892 44.1077L4.08745 42.1595C4.08697 42.1587 4.08649 42.1579 4.08601 42.1571C3.78618 41.6689 3.55983 41.3408 3.38648 41.1246C3.25765 40.964 3.18251 40.8968 3.15597 40.8747L3.14325 40.8689C2.33785 40.5559 1.70753 39.9156 1.3464 39.127C0.98054 38.328 0.902947 37.4088 1.121 36.5548C1.33912 35.7006 1.84757 34.9389 2.58156 34.4622C3.32297 33.9806 4.22023 33.8418 5.06861 34.0994C5.07832 34.1023 5.088 34.1054 5.09762 34.1087C6.83607 34.695 7.94911 35.8894 9.0951 37.6748C9.09955 37.6817 9.10391 37.6887 9.10819 37.6958L10.2976 39.6537C10.2978 39.6541 10.298 39.6544 10.2982 39.6548C11.1256 41.0074 11.7669 41.7436 12.4174 42.1103C12.8756 42.3687 13.4225 42.4884 14.221 42.3867L14.2221 41.5291L14.1867 41.1483L9.05955 1.08843ZM9.05955 1.08843L8.71865 1.16491C8.67347 1.17505 8.62904 1.18831 8.5857 1.2046L8.26693 1.32443C8.24003 1.33454 8.21357 1.34581 8.18763 1.3582C7.41318 1.72828 6.82928 2.40433 6.51607 3.20761L6.50801 3.22901L6.27336 3.87401C6.26763 3.88974 6.26231 3.90561 6.25738 3.92161L6.03601 4.64055C6.03351 4.64869 6.0311 4.65687 6.0288 4.66508C5.37844 6.98673 5.26096 9.45924 5.68626 11.8458L5.69005 11.8659L5.71009 11.9664L5.66182 12.0407C5.65456 12.0519 5.64753 12.0632 5.64073 12.0746L5.30425 12.6406L5.29345 12.6592C3.89603 15.1293 3.15652 18.0016 3.1538 20.929H3.15372L3.15387 20.9418L3.16273 21.6862L3.16305 21.7023L3.18518 22.4926L3.18509 22.4926L3.18567 22.5065C3.38131 27.1778 4.46551 30.8467 6.44002 33.6029C8.31384 36.2185 10.9287 37.9273 14.1367 38.9127M9.05955 1.08843L14.1367 38.9127M14.1367 38.9127C14.1004 39.6579 14.1171 40.4054 14.1866 41.1476L14.1367 38.9127Z" stroke="black" stroke-width="2" stroke-linecap="round" stroke-linejoin="round"/>
<defs>
<linearGradient id="paint0_linear_103_334" x1="23" y1="2" x2="23" y2="52.7977" gradientUnits="userSpaceOnUse">
<stop stop-color="#E23B3B" stop-opacity="0.23"/>
<stop offset="1" stop-color="#281840" stop-opacity="0.23"/>
</linearGradient>
<linearGradient id="paint1_linear_103_334" x1="23" y1="2" x2="23" y2="52.7977" gradientUnits="userSpaceOnUse">
<stop stop-color="#AE2FF6"/>
<stop offset="1" stop-color="#E23B3B"/>
</linearGradient>
</defs>
</svg>
