<svg width="35" height="35" viewBox="0 0 35 35" fill="none" xmlns="http://www.w3.org/2000/svg">
<g clip-path="url(#clip0_63_90)">
<path d="M24.875 1.95401C27.0746 3.22401 28.9043 5.04644 30.1831 7.24091C31.4618 9.43537 32.1453 11.9258 32.1658 14.4655C32.1863 17.0053 31.5432 19.5064 30.3 21.7213C29.0569 23.9361 27.2568 25.7879 25.0781 27.0932C22.8993 28.3986 20.4174 29.1123 17.8781 29.1637C15.3387 29.2151 12.83 28.6024 10.6002 27.3862C8.3704 26.1701 6.4969 24.3927 5.16514 22.23C3.83338 20.0673 3.08956 17.5942 3.00729 15.0557L3 14.5832L3.00729 14.1107C3.08896 11.5921 3.82184 9.1377 5.13447 6.98671C6.44711 4.83571 8.2947 3.06154 10.4971 1.83717C12.6996 0.612799 15.1817 -0.0199949 17.7015 0.000481608C20.2213 0.0209581 22.6928 0.694007 24.875 1.95401ZM21.4625 10.2067C20.3307 9.21203 18.859 8.69184 17.3535 8.75431C15.848 8.81677 14.4245 9.4571 13.379 10.5421C12.333 11.6274 11.7485 13.0759 11.7485 14.5832C11.7485 16.0904 12.333 17.539 13.379 18.6242C14.4245 19.7093 15.848 20.3496 17.3535 20.412C18.859 20.4745 20.3307 19.9543 21.4625 18.9596C21.7441 18.702 21.9135 18.3441 21.9343 17.963C21.9551 17.5818 21.8255 17.2077 21.5735 16.921C21.3216 16.6342 20.9672 16.4577 20.5865 16.4294C20.2058 16.401 19.8292 16.523 19.5375 16.7692C18.3563 17.8061 16.5698 17.7317 15.479 16.6001C14.9569 16.0584 14.6653 15.3354 14.6653 14.5832C14.6653 13.8309 14.9569 13.108 15.479 12.5663C16.0037 12.0213 16.7184 11.6996 17.4743 11.6681C18.2302 11.6366 18.9692 11.8977 19.5375 12.3971C19.8298 12.6371 20.2039 12.7542 20.5809 12.7235C20.9579 12.6929 21.3082 12.5171 21.558 12.2331C21.8077 11.949 21.9374 11.5791 21.9196 11.2013C21.9018 10.8235 21.7379 10.4674 21.4625 10.2082V10.2067Z" fill="white"/>
</g>
<defs>
<clipPath id="clip0_63_90">
<rect width="35" height="35" fill="white"/>
</clipPath>
</defs>
</svg>
