<svg width="36" height="47" viewBox="0 0 36 47" fill="none" xmlns="http://www.w3.org/2000/svg">
<path d="M1.3125 8.79344C1.3125 3.93696 5.33323 0 10.2931 0H25.7026C30.6624 0 34.6832 3.93696 34.6832 8.79344C34.6832 11.8686 33.0711 14.5751 30.6292 16.1468C33.0711 17.7185 34.6832 20.425 34.6832 23.5002C34.6832 28.3567 30.6624 32.2937 25.7026 32.2937H25.5076C23.1824 32.2937 21.0636 31.4284 19.4687 30.0088V38.111C19.4687 43.0323 15.3428 47 10.3415 47C5.39401 47 1.3125 43.075 1.3125 38.2065C1.3125 35.1315 2.92448 32.4251 5.36618 30.8534C2.92448 29.2816 1.3125 26.5752 1.3125 23.5002C1.3125 20.425 2.92463 17.7185 5.36648 16.1468C2.92463 14.5751 1.3125 11.8686 1.3125 8.79344ZM16.527 17.5871H10.2931C6.95786 17.5871 4.25417 20.2345 4.25417 23.5002C4.25417 26.7533 6.93701 29.3928 10.2545 29.4132C10.2673 29.4131 10.2802 29.4131 10.2931 29.4131H16.527V17.5871ZM19.4687 23.5002C19.4687 26.7659 22.1723 29.4133 25.5076 29.4133H25.7026C29.0378 29.4133 31.7415 26.7659 31.7415 23.5002C31.7415 20.2345 29.0378 17.5871 25.7026 17.5871H25.5076C22.1723 17.5871 19.4687 20.2345 19.4687 23.5002ZM10.2931 32.2937C10.2802 32.2937 10.2673 32.2936 10.2545 32.2936C6.93701 32.3139 4.25417 34.9534 4.25417 38.2065C4.25417 41.4602 6.99398 44.1196 10.3415 44.1196C13.7429 44.1196 16.527 41.4175 16.527 38.111V32.2937H10.2931ZM10.2931 2.88038C6.95786 2.88038 4.25417 5.52776 4.25417 8.79344C4.25417 12.0592 6.95786 14.7065 10.2931 14.7065H16.527V2.88038H10.2931ZM19.4687 14.7065H25.7026C29.0378 14.7065 31.7415 12.0592 31.7415 8.79344C31.7415 5.52776 29.0378 2.88038 25.7026 2.88038H19.4687V14.7065Z" fill="#B531DE" fill-opacity="0.67"/>
</svg>
