<svg width="38" height="37" viewBox="0 0 38 37" fill="none" xmlns="http://www.w3.org/2000/svg">
<path d="M12.7101 28.7184C12.7101 28.8629 12.5339 28.9785 12.3117 28.9785C12.0589 29.0002 11.8827 28.8846 11.8827 28.7184C11.8827 28.5738 12.0589 28.4582 12.281 28.4582C12.5109 28.4365 12.7101 28.5521 12.7101 28.7184ZM10.3274 28.3932C10.2738 28.5377 10.427 28.7039 10.6569 28.7473C10.856 28.8195 11.0859 28.7473 11.1319 28.6027C11.1778 28.4582 11.0323 28.292 10.8024 28.227C10.6032 28.1764 10.381 28.2486 10.3274 28.3932ZM13.7137 28.2703C13.4915 28.3209 13.3383 28.4582 13.3613 28.6244C13.3843 28.7689 13.5835 28.8629 13.8133 28.8123C14.0355 28.7617 14.1887 28.6244 14.1657 28.4799C14.1427 28.3426 13.9359 28.2486 13.7137 28.2703ZM18.7548 0.578125C8.12863 0.578125 0 8.1877 0 18.2109C0 26.2252 5.34758 33.0832 12.9859 35.4969C13.9665 35.6631 14.3113 35.0922 14.3113 34.6225C14.3113 34.1744 14.2883 31.7029 14.2883 30.1854C14.2883 30.1854 8.9254 31.2693 7.79919 28.0318C7.79919 28.0318 6.92581 25.9289 5.66935 25.3869C5.66935 25.3869 3.91492 24.2523 5.79194 24.274C5.79194 24.274 7.6996 24.4186 8.74919 26.1385C10.427 28.9279 13.2387 28.1258 14.3343 27.6488C14.5105 26.4926 15.0085 25.6904 15.5601 25.2135C11.2774 24.7654 6.95645 24.1801 6.95645 17.2281C6.95645 15.2408 7.53871 14.2436 8.76452 12.9717C8.56532 12.502 7.91411 10.5652 8.96371 8.06484C10.5649 7.59512 14.25 10.016 14.25 10.016C15.7823 9.61133 17.4294 9.40176 19.0613 9.40176C20.6931 9.40176 22.3403 9.61133 23.8726 10.016C23.8726 10.016 27.5577 7.58789 29.1589 8.06484C30.2085 10.5725 29.5573 12.502 29.3581 12.9717C30.5839 14.2508 31.3347 15.248 31.3347 17.2281C31.3347 24.2018 26.8222 24.7582 22.5395 25.2135C23.2444 25.7844 23.8419 26.8684 23.8419 28.5666C23.8419 31.002 23.819 34.0154 23.819 34.608C23.819 35.0777 24.1714 35.6486 25.1444 35.4824C32.8056 33.0832 38 26.2252 38 18.2109C38 8.1877 29.381 0.578125 18.7548 0.578125ZM7.44677 25.5025C7.34718 25.5748 7.37016 25.741 7.5004 25.8783C7.62298 25.9939 7.79919 26.0445 7.89879 25.9506C7.99839 25.8783 7.9754 25.7121 7.84516 25.5748C7.72258 25.4592 7.54637 25.4086 7.44677 25.5025ZM6.61936 24.9172C6.56573 25.0111 6.64234 25.1268 6.79556 25.199C6.91815 25.2713 7.07137 25.2496 7.125 25.1484C7.17863 25.0545 7.10202 24.9389 6.94879 24.8666C6.79556 24.8232 6.67298 24.8449 6.61936 24.9172ZM9.10161 27.4898C8.97903 27.5838 9.025 27.8006 9.20121 27.9379C9.37742 28.1041 9.5996 28.1258 9.69919 28.0102C9.79879 27.9162 9.75282 27.6994 9.5996 27.5621C9.43105 27.3959 9.20121 27.3742 9.10161 27.4898ZM8.22823 26.4275C8.10565 26.4998 8.10565 26.6877 8.22823 26.8539C8.35081 27.0201 8.55766 27.0924 8.65726 27.0201C8.77984 26.9262 8.77984 26.7383 8.65726 26.5721C8.55 26.4059 8.35081 26.3336 8.22823 26.4275Z" fill="#B531DE" fill-opacity="0.67"/>
</svg>
