<svg width="45" height="41" viewBox="0 0 45 41" fill="none" xmlns="http://www.w3.org/2000/svg">
<path d="M11.5286 7.5765C9.28178 10.7642 9.56163 14.9112 11.2734 18.2943L11.3993 18.5354L11.4844 18.6879C11.5001 18.7176 11.5184 18.7469 11.5346 18.7757C11.5643 18.8293 11.5941 18.8809 11.6196 18.9336L11.7834 19.2111L11.8769 19.3636L12.067 19.6571L12.1521 19.7807C12.2371 19.9127 12.3333 20.0437 12.4277 20.1732C12.4298 20.1765 12.4328 20.1802 12.4353 20.1835C12.4502 20.2041 12.4668 20.2247 12.4779 20.2453C12.5595 20.3566 12.648 20.4663 12.733 20.5751L12.8274 20.6938L13.0592 20.9749L13.1477 21.0797C13.2531 21.203 13.3609 21.3245 13.4709 21.4441L13.4777 21.4507C13.482 21.456 13.4862 21.4589 13.4905 21.4643C13.5971 21.5808 13.7066 21.6949 13.8188 21.8064L13.9243 21.9111L14.1867 22.165L14.2939 22.2656C14.4118 22.3751 14.5316 22.4827 14.6532 22.5884L14.7213 22.6461L15.0475 22.9182L15.1827 23.0245L15.4549 23.2306L15.6004 23.3399L16.0163 23.6346C16.0269 23.6416 16.0363 23.649 16.0469 23.656C16.1447 23.722 16.2438 23.7859 16.3433 23.8498L16.4718 23.9343L16.9362 24.2146L17.0646 24.2859L17.4134 24.4788C17.4772 24.5126 17.5422 24.5448 17.606 24.5769L17.8553 24.7006L17.9127 24.7278L18.0147 24.7765L18.4103 24.957L18.494 24.9982C18.6465 25.064 18.8002 25.127 18.9551 25.1874L19.0673 25.2311L19.5024 25.3903L19.5568 25.4092C19.7175 25.4641 19.8791 25.5164 20.0417 25.5659L20.1586 25.6005C20.3288 25.65 20.4882 25.7089 20.6592 25.7406C31.5246 27.7012 34.6815 19.2993 34.6815 19.2993C32.0307 22.7083 27.3257 23.607 22.8677 22.6065C22.6989 22.5653 22.5352 22.5171 22.3702 22.4688L22.246 22.4276C22.0852 22.379 21.9253 22.3274 21.7671 22.2739L21.7012 22.2504C21.5596 22.2009 21.4188 22.1494 21.2789 22.0958L21.1598 22.0496C21.0066 21.9899 20.8546 21.9276 20.7039 21.8625L20.6128 21.8229L20.2284 21.6456L20.1178 21.5929C20.0179 21.5442 19.9187 21.4943 19.8201 21.4432L19.6215 21.3402C19.5015 21.2764 19.3827 21.2106 19.2651 21.1427L19.1447 21.0768C18.9882 20.9861 18.8334 20.8913 18.6803 20.7965C18.6378 20.7697 18.597 20.7412 18.5549 20.714L18.2244 20.4972L18.1181 20.423L17.8055 20.2004L17.6668 20.0973L17.3849 19.8797L17.259 19.7807L16.9081 19.4922C16.8962 19.4819 16.8826 19.4716 16.8656 19.4604C16.7406 19.352 16.6177 19.2407 16.4964 19.129L16.3927 19.0301L16.1273 18.7737L16.0235 18.6706C15.913 18.5593 15.8045 18.4461 15.6982 18.331C15.6931 18.3252 15.6871 18.3198 15.682 18.3145C15.5696 18.1928 15.4596 18.0691 15.352 17.9435L15.2656 17.8421L15.0275 17.5523L14.9403 17.4451L14.666 17.0844C12.1908 13.7516 11.3062 9.15531 13.2795 5.38018M18.5034 4.89046C16.8788 7.1989 16.9668 10.2881 18.2342 12.7293C18.4462 13.1392 18.6863 13.5348 18.9529 13.9136C19.1962 14.2578 19.4663 14.668 19.7895 14.9441C19.9064 15.0678 20.0289 15.1915 20.154 15.3176C20.1854 15.3494 20.2178 15.3794 20.2501 15.4112C20.3714 15.528 20.4957 15.6419 20.6226 15.7529C20.6277 15.757 20.6324 15.762 20.6379 15.7661C20.7809 15.8893 20.9271 16.0089 21.0764 16.1247L21.1751 16.2006C21.3238 16.3139 21.4755 16.4233 21.6301 16.5287C21.6343 16.532 21.6386 16.5352 21.6429 16.5382C21.711 16.5848 21.7811 16.6289 21.8504 16.6734C21.8836 16.6948 21.9151 16.7175 21.9483 16.7377C22.0592 16.8081 22.1716 16.8761 22.2855 16.9418L22.3332 16.969L22.6309 17.1339C22.6657 17.1532 22.7015 17.1701 22.7372 17.1883L22.9498 17.2946C22.9605 17.3 22.9711 17.3041 22.9813 17.3091C23.1246 17.3791 23.2688 17.4451 23.4164 17.509C23.4478 17.5226 23.4802 17.535 23.5125 17.5481C23.6303 17.5976 23.7494 17.6454 23.8697 17.6912L24.0228 17.7464C24.1314 17.7856 24.2406 17.8231 24.3503 17.859L24.4983 17.9055C24.6544 17.9538 24.8088 18.014 24.9717 18.0408C33.3606 19.4126 35.2978 13.0364 35.2978 13.0364C33.5519 15.518 30.1713 16.7027 26.5631 15.7785C26.4035 15.7374 26.2451 15.692 26.0881 15.6424C26.04 15.628 25.9928 15.6128 25.9452 15.6012C25.8337 15.5656 25.723 15.5279 25.613 15.4883L25.4629 15.433C25.3425 15.3918 25.2234 15.3403 25.1056 15.2908C25.0733 15.2772 25.041 15.2648 25.0091 15.2504C24.8611 15.1876 24.715 15.1207 24.571 15.0497C24.497 15.0138 24.4243 14.9763 24.3516 14.9392L24.2249 14.8749C24.1313 14.825 24.0387 14.7735 23.9471 14.7203L23.8808 14.6791C23.7675 14.6135 23.6555 14.5459 23.5448 14.4763C23.5108 14.4548 23.4776 14.435 23.4436 14.4095L23.2258 14.2673C23.072 14.1617 22.9209 14.0526 22.7725 13.94L22.6704 13.8608C21.0913 12.6299 19.8392 10.9481 19.2443 9.04071C18.6204 7.06205 18.7552 4.84223 19.8397 3.04041M24.3682 2.88376C23.4104 4.27543 23.3164 6.00346 23.9854 7.54022C24.6863 9.17138 26.1225 10.4513 27.7986 11.0577C27.8675 11.0833 27.9368 11.1059 28.0112 11.129L28.1031 11.1579C28.2018 11.1884 28.3 11.2238 28.4016 11.2428C33.0339 12.1262 34.2902 8.89643 34.6245 8.42114C33.5239 9.98552 31.6743 10.3611 29.4049 9.81734C29.2263 9.77405 29.0285 9.71016 28.852 9.64997C28.63 9.57209 28.4123 9.48279 28.2001 9.38244C27.7962 9.19048 27.4132 8.95971 27.0569 8.69362C25.0219 7.17252 23.76 4.2713 25.0852 1.90845" fill="#E23B3B" fill-opacity="0.67"/>
<path d="M23.3602 29.956H21.9228C21.8428 29.956 21.7637 30.0178 21.7467 30.0937L20.726 34.6722C20.709 34.7476 20.6299 34.8095 20.5503 34.8095H19.5326C18.5255 34.8095 18.642 34.1347 18.8521 33.2101L18.8585 33.182L18.9806 32.5513L19.0333 32.2916L19.4977 30.0937C19.5139 30.0178 19.4616 29.9556 19.3816 29.9556H17.9059C17.8652 29.9569 17.8261 29.9711 17.7944 29.9959C17.7628 30.0208 17.7404 30.055 17.7306 30.0932L17.0659 33.1495C16.7002 34.767 16.7971 36.3096 18.7841 36.3578L18.8415 36.359H21.9598C22.0397 36.359 22.1184 36.2972 22.1354 36.2213L23.4802 30.0932C23.4972 30.0174 23.4449 29.9556 23.3653 29.9556L23.3602 29.956ZM29.0962 34.8256C29.1761 34.8256 29.2237 34.8874 29.2123 34.9632L29.0728 35.6249" fill="#E23B3B" fill-opacity="0.67"/>
<path d="M25.2502 33.9739C25.249 33.9013 25.334 33.7768 25.414 33.7768L25.2345 33.7739C25.1494 34.5629 25.2502 33.9739 25.2502 33.9739ZM29.0961 34.8255C29.1761 34.8255 29.2237 34.8873 29.2123 34.9632L29.0498 35.7324" fill="#E23B3B" fill-opacity="0.67"/>
<path d="M26.4215 36.438H26.3543H26.43H26.4215ZM5.28531 33.9902L5.50859 33.0306L5.25342 34.1271L5.22364 34.2648L5.28574 33.9894L5.28531 33.9902ZM7.9587 29.9401H6.37959C6.33879 29.9417 6.29957 29.9558 6.26766 29.9805C6.23575 30.0052 6.21283 30.0392 6.20224 30.0774L5.90284 31.3553C5.8978 31.3718 5.89697 31.3893 5.90039 31.4062C5.90381 31.4232 5.9114 31.439 5.9225 31.4525C5.93361 31.466 5.9479 31.4767 5.96417 31.4836C5.98044 31.4906 5.99821 31.4937 6.01596 31.4926H7.60741C7.68736 31.4926 7.76647 31.4307 7.78348 31.3553L8.07268 30.0745C8.08969 29.9991 8.03865 29.9373 7.95785 29.9373L7.9587 29.9401ZM3.02786 38.9525L4.33011 38.9624C3.94564 38.9624 3.31068 38.9554 3.02744 38.9521L3.02786 38.9525Z" fill="#E23B3B" fill-opacity="0.67"/>
<path d="M7.50108 31.9334H5.90921C5.86841 31.935 5.82919 31.9491 5.79728 31.9738C5.76537 31.9985 5.74245 32.0325 5.73187 32.0707L5.28531 33.99L5.22322 34.2654L4.79793 36.2247C4.77686 36.3161 4.75131 36.4064 4.72137 36.4955C4.72137 36.4955 4.42367 37.3529 3.92438 37.3434L3.42891 37.3344C3.38827 37.3355 3.34905 37.3491 3.31693 37.3732C3.28482 37.3974 3.26147 37.4309 3.25029 37.4687L2.92069 38.8138C2.91548 38.8303 2.91443 38.8477 2.91763 38.8646C2.92083 38.8815 2.92818 38.8974 2.93907 38.911C2.94995 38.9246 2.96405 38.9354 2.98017 38.9426C2.99629 38.9498 3.01396 38.9531 3.03169 38.9523L4.33436 38.9626C5.58301 38.9626 6.24094 38.2919 6.66326 36.3627L7.62016 32.0756C7.63718 32.0002 7.58529 31.9384 7.50534 31.9384L7.50108 31.9334ZM30.1105 36.3599C30.0305 36.3599 29.9829 36.298 29.9956 36.2222L31.1928 30.7866" fill="#E23B3B" fill-opacity="0.67"/>
<path d="M30.0131 36.291C30.0033 36.2531 30.0088 36.1604 30.0258 36.0849L30.594 33.5044L29.9952 36.2222C29.9782 36.298 30.0301 36.3599 30.11 36.3599H30.2555C30.1755 36.3599 30.0224 36.329 30.0131 36.291ZM31.6802 36.329C31.6368 36.3455 31.5356 36.3599 31.4557 36.3599H31.6011C31.6417 36.3583 31.6807 36.344 31.7121 36.3191C31.7436 36.2942 31.7658 36.26 31.7755 36.2218L31.8044 36.0841C31.7887 36.16 31.7194 36.3121 31.6768 36.329H31.6802ZM36.7404 31.1506L36.8063 31.4145C36.8246 31.4899 36.774 31.5513 36.6944 31.5517" fill="#E23B3B" fill-opacity="0.67"/>
<path d="M32.2301 34.0377L32.2888 33.764L32.5172 32.7272L32.2586 33.9012L32.2301 34.0377ZM31.2124 30.697L31.1627 30.9237L30.5945 33.5043L31.1933 30.7865L31.2124 30.6974V30.697Z" fill="#E23B3B" fill-opacity="0.67"/>
<path d="M36.8067 31.4143L36.7408 31.1505L36.643 30.7383C36.5137 30.2519 36.1343 29.9703 35.3101 29.9703L31.5165 29.9679C31.4758 29.9692 31.4367 29.9834 31.4051 30.0082C31.3734 30.0331 31.351 30.0672 31.3413 30.1055L31.2826 30.3747L31.1975 30.7816L30.0305 36.0799C30.0135 36.1557 30.008 36.2448 30.0178 36.286C30.0275 36.3272 30.1806 36.3548 30.2602 36.3548H31.4595C31.5395 36.3548 31.6402 36.3408 31.684 36.3239C31.7279 36.307 31.7921 36.159 31.8116 36.0791L32.2667 33.8967L32.7537 31.6856C32.7707 31.6102 32.8494 31.5487 32.9289 31.5483L36.7025 31.5467C36.782 31.5467 36.8326 31.4848 36.8144 31.4094L36.8067 31.4143ZM41.6648 29.0263L41.3743 29.0276H40.1665C40.1223 29.0301 40.0791 29.0418 40.04 29.0619C40.0008 29.0819 39.9665 29.1099 39.9394 29.1438L37.2686 32.9363C37.2235 33.0002 37.172 32.9907 37.1537 32.9157L36.9573 32.0801C36.9467 32.0419 36.9237 32.0079 36.8918 31.9832C36.8599 31.9585 36.8207 31.9444 36.7799 31.9428H35.063C34.983 31.9428 34.9354 32.0034 34.9575 32.078L35.7231 34.6907C35.7452 34.7649 35.7464 34.8873 35.7273 34.9628L35.3871 36.227C35.3813 36.2432 35.3797 36.2606 35.3826 36.2775C35.3855 36.2945 35.3927 36.3104 35.4036 36.324C35.4144 36.3375 35.4286 36.3483 35.4448 36.3551C35.461 36.362 35.4787 36.3649 35.4964 36.3635H37.1975C37.2775 36.3635 37.3591 36.3016 37.3787 36.2274L37.7189 34.9632C37.7456 34.8742 37.7873 34.79 37.8423 34.7142L42.1828 29.1356C42.2309 29.0738 42.2049 29.0235 42.125 29.0243L41.6699 29.0272L41.6648 29.0263ZM28.0231 32.2982C28.0129 32.3806 27.933 32.4424 27.853 32.4424H25.6755C25.6002 32.4424 25.562 32.393 25.5735 32.3311L25.5752 32.32L25.5849 32.2841C25.7976 31.7482 26.2165 31.3966 27.0122 31.3966C27.9083 31.3966 28.0831 31.8212 28.0223 32.2982H28.0231ZM27.3843 29.8627C24.5902 29.8627 23.928 31.5067 23.5567 33.1659C23.185 34.8572 23.2173 36.4389 26.1085 36.4389H26.5669L26.9199 36.4377L28.7597 36.427C28.8001 36.4251 28.8388 36.4107 28.87 36.3858C28.9012 36.3609 28.9232 36.3269 28.9328 36.2889L29.2123 34.9648C29.2284 34.889 29.1761 34.8271 29.0961 34.8271H26.4968C25.4633 34.8271 25.1558 34.5608 25.2689 33.778H29.424C29.4921 33.7768 29.5538 33.7368 29.578 33.6741C29.5823 33.663 29.5865 33.6511 29.5882 33.6391C30.2049 31.3843 30.028 29.8644 27.3852 29.8644L27.3843 29.8627ZM14.1773 32.2891L14.1382 32.4239L13.8243 33.5022L13.5105 34.5798C13.4974 34.6178 13.4728 34.6511 13.4398 34.6752C13.4069 34.6993 13.3671 34.7132 13.3259 34.715H11.6647C10.405 34.715 10.0983 33.7599 10.405 32.3513C10.7112 30.9106 11.313 30.0149 12.5527 29.9242C14.2471 29.8005 14.5856 30.9555 14.1773 32.2887V32.2891ZM15.3163 34.6326C15.3163 34.6326 16.0988 32.7899 16.2774 31.7252C16.5198 30.3001 15.7841 28.2336 12.941 28.2336C10.1141 28.2336 8.88668 30.2065 8.41844 32.3559C7.95061 34.5159 8.56389 36.4105 11.3742 36.3956L15.6637 36.3804C15.7048 36.3785 15.7444 36.3643 15.7769 36.3398C15.8094 36.3153 15.8333 36.2817 15.8453 36.2435L16.2068 34.9088C16.2127 34.8926 16.2143 34.8753 16.2115 34.8583C16.2087 34.8414 16.2016 34.8255 16.1908 34.8119C16.18 34.7983 16.1659 34.7875 16.1498 34.7805C16.1337 34.7736 16.116 34.7706 16.0984 34.7719L15.4064 34.7678C15.3384 34.7674 15.3001 34.7249 15.3077 34.6688C15.3094 34.6585 15.312 34.6482 15.3163 34.6375V34.6326Z" fill="#E23B3B" fill-opacity="0.67"/>
<path d="M29.3101 33.3997C29.3101 33.4508 29.2676 33.4921 29.2148 33.4921C29.1621 33.4921 29.1196 33.4508 29.1196 33.3997C29.1196 33.3486 29.1621 33.3074 29.2148 33.3074C29.2676 33.3074 29.3101 33.3486 29.3101 33.3997Z" fill="#E23B3B" fill-opacity="0.67"/>
</svg>
