<svg width="45" height="45" viewBox="0 0 45 45" fill="none" xmlns="http://www.w3.org/2000/svg">
<g clip-path="url(#clip0_106_1026)">
<path d="M44.332 10.1803C44.3251 10.1599 44.3169 10.1399 44.3074 10.1205C44.2948 10.0827 44.2793 10.046 44.2608 10.0107C44.2466 9.98871 44.2307 9.96785 44.2134 9.94825C44.1941 9.91941 44.1729 9.89181 44.1501 9.86564C44.1299 9.8463 44.1044 9.83048 44.0824 9.8129C44.0574 9.79132 44.0309 9.77135 44.0033 9.75314L35.543 4.88224C35.4361 4.82053 35.3148 4.78804 35.1914 4.78804C35.068 4.78804 34.9467 4.82053 34.8399 4.88224L26.3777 9.75577C26.3506 9.77418 26.3247 9.79444 26.3004 9.81642C26.2764 9.83251 26.2535 9.85013 26.2318 9.86915C26.2088 9.89485 26.1877 9.92217 26.1686 9.95089C26.1536 9.97198 26.1343 9.99044 26.1211 10.0133C26.1033 10.0488 26.0881 10.0855 26.0754 10.1232C26.0684 10.1434 26.0569 10.1618 26.0508 10.1829C26.0347 10.2425 26.0264 10.304 26.0262 10.3657V19.6153L18.9756 23.675V5.5757C18.9757 5.51363 18.9675 5.45184 18.951 5.392C18.9457 5.37091 18.9334 5.35245 18.9264 5.33224C18.9141 5.29474 18.8988 5.25829 18.8807 5.22325C18.8684 5.2004 18.8482 5.18194 18.8332 5.15997C18.8139 5.13113 18.7927 5.10353 18.7699 5.07736C18.748 5.0586 18.7251 5.041 18.7014 5.02462C18.6767 5.00325 18.6509 4.9833 18.624 4.96486L10.161 0.0939567C10.0542 0.0322446 9.9329 -0.000244141 9.80948 -0.000244141C9.68605 -0.000244141 9.5648 0.0322446 9.45792 0.0939567L0.996685 4.96486C0.969215 4.98282 0.943339 5.00311 0.919342 5.0255C0.895103 5.04159 0.871912 5.0592 0.849908 5.07823C0.827176 5.10395 0.806321 5.13127 0.787506 5.15997C0.771685 5.18194 0.752349 5.2004 0.739166 5.22325C0.721155 5.25824 0.70616 5.2947 0.694342 5.33224C0.684742 5.35137 0.676233 5.37103 0.668853 5.39112C0.652684 5.45132 0.644412 5.51336 0.644244 5.5757V34.5532C0.643907 34.677 0.676236 34.7986 0.737965 34.9059C0.799694 35.0131 0.888636 35.1022 0.995806 35.1641L17.9148 44.9059C17.9524 44.9248 17.9915 44.9407 18.0316 44.9533C18.0501 44.9604 18.0677 44.9709 18.087 44.9762C18.2051 45.0078 18.3293 45.0078 18.4474 44.9762C18.4649 44.9718 18.4799 44.9621 18.4957 44.9568C18.5381 44.9435 18.5793 44.9264 18.6188 44.9059L35.543 35.1641C35.6501 35.1022 35.7391 35.0131 35.8008 34.9059C35.8625 34.7986 35.8949 34.677 35.8945 34.5532V25.3019L44.0016 20.634C44.1094 20.5718 44.1987 20.482 44.2605 20.3739C44.3223 20.2658 44.3542 20.1433 44.3531 20.0188V10.364C44.3536 10.3021 44.3465 10.2404 44.332 10.1803ZM9.8086 1.51866L16.8565 5.57482L9.80772 9.63361L2.76065 5.5757L9.8086 1.51866ZM17.5649 6.7921V24.4862L13.4754 26.8408L10.5144 28.5459V10.8544L14.6039 8.49982L17.5649 6.7921ZM17.5649 43.0716L2.05401 34.1454V6.79562L5.01504 8.49894L9.10372 10.8544V29.7667C9.1055 29.7933 9.10903 29.8197 9.11426 29.8458C9.11637 29.8807 9.12107 29.9154 9.12833 29.9495C9.13726 29.9768 9.14843 30.0032 9.16172 30.0286C9.17151 30.0589 9.18386 30.0883 9.19864 30.1165C9.21488 30.1404 9.23249 30.1633 9.25137 30.1851C9.26896 30.211 9.28834 30.2357 9.30938 30.2589C9.3296 30.2782 9.35508 30.2923 9.37706 30.3099C9.40105 30.3307 9.4263 30.3501 9.45264 30.3679L17.5553 34.954L17.5649 43.0716ZM18.2681 33.7402L11.2315 29.757L18.6223 25.5023L26.7311 20.8344L33.7737 24.8888L28.6058 27.8384L18.2681 33.7402ZM34.4856 34.1419L18.9738 43.076V34.9628L30.4629 28.4062L34.4856 26.1078V34.1419ZM34.4856 23.6715L31.5246 21.9726L27.4351 19.618V11.583L30.3961 13.2881L34.4856 15.6444V23.6715ZM35.1888 14.4184L28.1399 10.3605L35.1888 6.30343L42.2358 10.3596L35.1888 14.4184ZM35.8919 23.6715V15.6444L39.9902 13.2881L42.9504 11.583V19.6153L35.8919 23.6715Z" fill="#C7359E" fill-opacity="0.67"/>
</g>
<defs>
<clipPath id="clip0_106_1026">
<rect width="45" height="45" fill="white"/>
</clipPath>
</defs>
</svg>
