<svg width="44" height="44" viewBox="0 0 44 44" fill="none" xmlns="http://www.w3.org/2000/svg">
<g clip-path="url(#clip0_63_93)">
<path d="M29.8233 10.648L29.824 10.6631L29.8331 10.9858L29.8333 11V17.8333H32.9999C32.9999 17.8333 33 17.8333 33 17.8333C34.4702 17.8331 35.8893 18.3727 36.988 19.3497C38.0867 20.3267 38.7884 21.6731 38.9599 23.1333L38.9615 23.1487L38.989 23.4677C38.9898 23.4773 38.9904 23.4869 38.9906 23.4965L38.9998 23.8191C39.0004 23.8408 38.9996 23.8625 38.9974 23.8841L38.9607 24.2434C38.9591 24.2593 38.9567 24.2751 38.9536 24.2907L37.1093 33.516L37.1058 33.5321C36.3797 36.6308 34.1909 39.048 31.4612 39.0146C31.4551 39.0146 31.449 39.0144 31.443 39.0141L31.1545 39H16.5H16.4999C15.9284 38.9999 15.3768 38.7901 14.9497 38.4103C14.5226 38.0306 14.2498 37.5073 14.1829 36.9397C14.1818 36.9302 14.181 36.9206 14.1804 36.911L14.1675 36.6965C14.167 36.6866 14.1667 36.6766 14.1667 36.6666L14.1685 19.1839L14.1685 19.1835C14.1689 18.7743 14.2769 18.3724 14.4817 18.0182L14.9146 18.2684L14.4817 18.0182C14.6865 17.6639 14.9808 17.3697 15.3352 17.1652C16.0458 16.7547 16.6444 16.1756 17.078 15.4789C17.5103 14.7843 17.7655 13.9943 17.8211 13.1782L17.8333 12.8247V11C17.8333 9.4087 18.4655 7.88258 19.5907 6.75736C20.7159 5.63215 22.242 5.00001 23.8333 5L29.8233 10.648ZM29.8233 10.648C29.7335 9.12021 29.0633 7.68448 27.9498 6.63457C26.8363 5.58466 25.3637 4.99992 23.8333 5L29.8233 10.648Z" stroke="url(#paint0_linear_63_93)" stroke-linecap="round" stroke-linejoin="round"/>
<path d="M23.8333 5.5C25.2362 5.49992 26.5861 6.03593 27.6068 6.99835C28.6275 7.96078 29.2419 9.27686 29.3242 10.6773L29.3333 11V18.3333H33C34.3477 18.3331 35.6486 18.8278 36.6557 19.7233C37.6629 20.6189 38.3061 21.8531 38.4633 23.1917L38.4908 23.5107L38.5 23.8333L38.4633 24.1927L36.619 33.418C35.9205 36.399 33.8653 38.544 31.4673 38.5147L31.1667 38.5H16.5C16.0509 38.4999 15.6175 38.3351 15.282 38.0367C14.9464 37.7383 14.732 37.3271 14.6795 36.8812L14.6667 36.6667L14.6685 19.184C14.6688 18.8625 14.7537 18.5467 14.9146 18.2684C15.0755 17.9901 15.3067 17.7589 15.5852 17.5982C16.3669 17.1467 17.0255 16.5095 17.5025 15.7431C17.9796 14.9766 18.2605 14.1045 18.3205 13.2037L18.3333 12.8333V11C18.3333 9.54131 18.9128 8.14236 19.9442 7.11091C20.9757 6.07946 22.3746 5.5 23.8333 5.5Z" fill="url(#paint1_linear_63_93)"/>
<path d="M9.16666 18.3335C9.6157 18.3336 10.0491 18.4984 10.3847 18.7968C10.7202 19.0952 10.9346 19.5064 10.9872 19.9523L11 20.1668V36.6668C10.9999 37.1159 10.8351 37.5493 10.5367 37.8848C10.2383 38.2204 9.82712 38.4348 9.38116 38.4873L9.16666 38.5002H7.33332C6.40827 38.5005 5.51728 38.1511 4.83899 37.5221C4.16069 36.8931 3.7452 36.0309 3.67582 35.1085L3.66666 34.8335V22.0002C3.66636 21.0751 4.01574 20.1841 4.64473 19.5058C5.27373 18.8275 6.13587 18.412 7.05832 18.3427L7.33332 18.3335H9.16666Z" fill="url(#paint2_linear_63_93)" stroke="url(#paint3_linear_63_93)" stroke-linecap="round" stroke-linejoin="round"/>
<path d="M9.16666 18.3335C9.6157 18.3336 10.0491 18.4984 10.3847 18.7968C10.7202 19.0952 10.9346 19.5064 10.9872 19.9523L11 20.1668V36.6668C10.9999 37.1159 10.8351 37.5493 10.5367 37.8848C10.2383 38.2204 9.82712 38.4348 9.38116 38.4873L9.16666 38.5002H7.33332C6.40827 38.5005 5.51728 38.1511 4.83899 37.5221C4.16069 36.8931 3.7452 36.0309 3.67582 35.1085L3.66666 34.8335V22.0002C3.66636 21.0751 4.01574 20.1841 4.64473 19.5058C5.27373 18.8275 6.13587 18.412 7.05832 18.3427L7.33332 18.3335H9.16666Z" stroke="url(#paint4_linear_63_93)" stroke-linecap="round" stroke-linejoin="round"/>
</g>
<defs>
<linearGradient id="paint0_linear_63_93" x1="26.5833" y1="5.5" x2="26.5833" y2="38.515" gradientUnits="userSpaceOnUse">
<stop stop-color="#E23B3B"/>
<stop offset="1" stop-color="#AE2FF6"/>
</linearGradient>
<linearGradient id="paint1_linear_63_93" x1="26.5833" y1="5.5" x2="26.5833" y2="38.515" gradientUnits="userSpaceOnUse">
<stop stop-color="#AE2FF6" stop-opacity="0.23"/>
<stop offset="1" stop-color="#E23B3B" stop-opacity="0.23"/>
</linearGradient>
<linearGradient id="paint2_linear_63_93" x1="7.33332" y1="18.3335" x2="7.33332" y2="38.5002" gradientUnits="userSpaceOnUse">
<stop stop-color="#AE2FF6" stop-opacity="0.23"/>
<stop offset="1" stop-color="#E23B3B" stop-opacity="0.23"/>
</linearGradient>
<linearGradient id="paint3_linear_63_93" x1="7.33332" y1="18.3335" x2="7.33332" y2="38.5002" gradientUnits="userSpaceOnUse">
<stop stop-color="#AE2FF6"/>
<stop offset="1" stop-color="#E23B3B"/>
</linearGradient>
<linearGradient id="paint4_linear_63_93" x1="7.33332" y1="18.3335" x2="7.33332" y2="38.5002" gradientUnits="userSpaceOnUse">
<stop stop-color="#AE2FF6"/>
<stop offset="1" stop-color="#E23B3B"/>
</linearGradient>
<clipPath id="clip0_63_93">
<rect width="44" height="44" fill="white"/>
</clipPath>
</defs>
</svg>
