<svg width="40" height="44" viewBox="0 0 40 44" fill="none" xmlns="http://www.w3.org/2000/svg">
<path d="M5.66071 37.2876V37.7876H6.16071H12.0893H12.0982H12.5982V37.2876V16.527V16.027H12.0982H6.16071H5.66071V16.527V37.2876ZM34.3125 37.7876H34.8125V37.2876V25.9071C34.8125 23.1019 34.5378 20.5098 33.437 18.6115C32.8792 17.6496 32.11 16.8662 31.0693 16.3278C30.0332 15.7917 28.7551 15.5123 27.1964 15.5123C24.8656 15.5123 23.1008 16.559 22 17.8349V16.527V16.027H21.5H15.8125H15.3125V16.527V37.2876V37.7876H15.8125H21.7411H22.2411V37.2876V27.0141C22.2411 25.6668 22.3631 24.4391 22.8097 23.559C23.0272 23.1304 23.3165 22.7952 23.7014 22.5635C24.0875 22.3312 24.603 22.1831 25.3036 22.1831C25.9735 22.1831 26.4337 22.3523 26.7628 22.6027C27.0962 22.8564 27.3391 23.2273 27.5122 23.7037C27.8672 24.6811 27.8839 25.9642 27.8839 27.1889V37.2876V37.7876H28.3839H34.3125ZM2.84821 0.5H37.1429C38.3956 0.5 39.5 1.6396 39.5 3.13643V40.3658C39.5 41.8626 38.3956 43.0022 37.1429 43.0022H2.84821C1.59739 43.0022 0.5 41.8648 0.5 40.3658V3.13643C0.5 1.63748 1.59739 0.5 2.84821 0.5ZM5.1875 9.95308C5.1875 12.2466 6.90759 14.1916 9.125 14.1916C11.3416 14.1916 13.0625 12.2572 13.0625 9.95308C13.0625 7.65869 11.3327 5.71461 9.125 5.71461C6.90759 5.71461 5.1875 7.65956 5.1875 9.95308Z" stroke="url(#paint0_linear_103_336)"/>
<path d="M37.1429 0H2.84821C1.27679 0 0 1.408 0 3.13643V40.3658C0 42.0942 1.27679 43.5022 2.84821 43.5022H37.1429C38.7143 43.5022 40 42.0942 40 40.3658V3.13643C40 1.408 38.7143 0 37.1429 0ZM6.16071 37.2876V16.527H12.0982V37.2876H12.0893H6.16071ZM9.125 13.6916C7.22321 13.6916 5.6875 12.0117 5.6875 9.95308C5.6875 7.89449 7.22321 6.21461 9.125 6.21461C11.0179 6.21461 12.5625 7.89449 12.5625 9.95308C12.5625 12.0214 11.0268 13.6916 9.125 13.6916ZM34.3125 37.2876H28.3839V27.1889C28.3839 24.7807 28.3393 21.6831 25.3036 21.6831C22.2143 21.6831 21.7411 24.3049 21.7411 27.0141V37.2876H15.8125V16.527H21.5V19.3624H21.5804C22.375 17.731 24.3125 16.0123 27.1964 16.0123C33.1964 16.0123 34.3125 20.314 34.3125 25.9071V37.2876Z" fill="url(#paint1_linear_103_336)"/>
<path d="M37.1429 0H2.84821C1.27679 0 0 1.408 0 3.13643V40.3658C0 42.0942 1.27679 43.5022 2.84821 43.5022H37.1429C38.7143 43.5022 40 42.0942 40 40.3658V3.13643C40 1.408 38.7143 0 37.1429 0ZM6.16071 37.2876V16.527H12.0982V37.2876H12.0893H6.16071ZM9.125 13.6916C7.22321 13.6916 5.6875 12.0117 5.6875 9.95308C5.6875 7.89449 7.22321 6.21461 9.125 6.21461C11.0179 6.21461 12.5625 7.89449 12.5625 9.95308C12.5625 12.0214 11.0268 13.6916 9.125 13.6916ZM34.3125 37.2876H28.3839V27.1889C28.3839 24.7807 28.3393 21.6831 25.3036 21.6831C22.2143 21.6831 21.7411 24.3049 21.7411 27.0141V37.2876H15.8125V16.527H21.5V19.3624H21.5804C22.375 17.731 24.3125 16.0123 27.1964 16.0123C33.1964 16.0123 34.3125 20.314 34.3125 25.9071V37.2876Z" stroke="url(#paint2_linear_103_336)"/>
<defs>
<linearGradient id="paint0_linear_103_336" x1="20" y1="0" x2="20" y2="43.5022" gradientUnits="userSpaceOnUse">
<stop stop-color="#AE2FF6"/>
<stop offset="1" stop-color="#E23B3B"/>
</linearGradient>
<linearGradient id="paint1_linear_103_336" x1="20" y1="0" x2="20" y2="43.5022" gradientUnits="userSpaceOnUse">
<stop stop-color="#AE2FF6" stop-opacity="0.23"/>
<stop offset="1" stop-color="#E23B3B" stop-opacity="0.23"/>
</linearGradient>
<linearGradient id="paint2_linear_103_336" x1="20" y1="0" x2="20" y2="43.5022" gradientUnits="userSpaceOnUse">
<stop stop-color="#AE2FF6"/>
<stop offset="1" stop-color="#E23B3B"/>
</linearGradient>
</defs>
</svg>
