<svg width="35" height="35" viewBox="0 0 35 35" fill="none" xmlns="http://www.w3.org/2000/svg">
<g clip-path="url(#clip0_34_22)">
<path d="M13.125 16.0416C13.125 17.2019 13.5859 18.3147 14.4064 19.1352C15.2269 19.9557 16.3397 20.4166 17.5 20.4166C18.6603 20.4166 19.7731 19.9557 20.5936 19.1352C21.4141 18.3147 21.875 17.2019 21.875 16.0416C21.875 14.8813 21.4141 13.7685 20.5936 12.948C19.7731 12.1276 18.6603 11.6666 17.5 11.6666C16.3397 11.6666 15.2269 12.1276 14.4064 12.948C13.5859 13.7685 13.125 14.8813 13.125 16.0416Z" stroke="white" stroke-width="2.75" stroke-linecap="round" stroke-linejoin="round"/>
<path d="M25.7498 24.2914L19.5621 30.4791C19.0152 31.0255 18.2738 31.3323 17.5007 31.3323C16.7277 31.3323 15.9863 31.0255 15.4394 30.4791L9.25019 24.2914C7.61864 22.6598 6.50756 20.581 6.05745 18.3179C5.60733 16.0548 5.83841 13.709 6.72145 11.5773C7.60449 9.44548 9.09983 7.62344 11.0184 6.34151C12.937 5.05959 15.1926 4.37537 17.5 4.37537C19.8074 4.37537 22.063 5.05959 23.9816 6.34151C25.9001 7.62344 27.3955 9.44548 28.2785 11.5773C29.1616 13.709 29.3926 16.0548 28.9425 18.3179C28.4924 20.581 27.3813 22.6598 25.7498 24.2914Z" stroke="white" stroke-width="2.75" stroke-linecap="round" stroke-linejoin="round"/>
</g>
<defs>
<clipPath id="clip0_34_22">
<rect width="35" height="35" fill="white"/>
</clipPath>
</defs>
</svg>
