<svg width="53" height="39" viewBox="0 0 53 39" fill="none" xmlns="http://www.w3.org/2000/svg">
<path d="M26.1936 34.4298C26.0197 34.4298 25.8458 34.3841 25.6884 34.3079L24.0984 33.4396C23.8583 33.3177 23.9742 33.272 24.057 33.2491C24.3717 33.1501 24.438 33.1273 24.7775 32.9445C24.8106 32.9292 24.8603 32.9368 24.8934 32.9521L26.1191 33.6224C26.1605 33.6452 26.2267 33.6452 26.2681 33.6224L31.0547 31.0782C31.0961 31.0554 31.1292 31.0097 31.1292 30.9564V25.8757C31.1292 25.8224 31.1044 25.7767 31.0547 25.7538L26.2681 23.2173C26.2267 23.1945 26.1688 23.1945 26.1191 23.2173L21.3325 25.7538C21.2828 25.7767 21.258 25.83 21.258 25.8757V30.9564C21.258 31.0021 21.2911 31.0478 21.3325 31.0706L22.6409 31.7638C23.3531 32.0913 23.792 31.7029 23.792 31.322V26.3023C23.792 26.2337 23.85 26.1728 23.9328 26.1728H24.5373C24.6119 26.1728 24.6781 26.2261 24.6781 26.3023V31.322C24.6781 32.198 24.1647 32.6931 23.262 32.6931C22.9888 32.6931 22.7652 32.6931 22.1606 32.4189L20.9019 31.7562C20.5955 31.5886 20.3967 31.2839 20.3967 30.9564V25.8757C20.3967 25.5482 20.5872 25.2359 20.9019 25.0759L25.6884 22.5318C25.9948 22.3718 26.3923 22.3718 26.6905 22.5318L31.477 25.0759C31.7834 25.2435 31.9822 25.5482 31.9822 25.8757V30.9564C31.9822 31.2839 31.7917 31.5962 31.477 31.7562L26.6905 34.3003C26.5497 34.3841 26.3758 34.4298 26.1936 34.4298ZM30.0609 29.4177C30.0609 28.4655 29.3653 28.2142 27.8913 28.0314C26.4006 27.8486 26.2516 27.7571 26.2516 27.4372C26.2516 27.1706 26.3758 26.8202 27.4772 26.8202C28.4627 26.8202 28.827 27.0183 28.9761 27.6277C28.9927 27.6886 29.0423 27.7267 29.1086 27.7267H29.7297C29.7711 27.7267 29.8042 27.7114 29.8291 27.6886C29.8539 27.6581 29.8705 27.6277 29.8622 27.5896C29.7628 26.5384 29.0092 26.0509 27.4772 26.0509C26.1108 26.0509 25.2992 26.5841 25.2992 27.4677C25.2992 28.4351 26.1108 28.6941 27.4192 28.8159C28.9844 28.9607 29.1086 29.1663 29.1086 29.4482C29.1086 29.9433 28.678 30.1489 27.6677 30.1489C26.4006 30.1489 26.1191 29.8595 26.028 29.2806C26.0197 29.2196 25.9617 29.1739 25.8872 29.1739H25.2661C25.1916 29.1739 25.1253 29.2273 25.1253 29.3034C25.1253 30.0423 25.5642 30.9259 27.6594 30.9259C29.1914 30.9259 30.0609 30.3775 30.0609 29.4177ZM34.5742 25.6015C34.5742 26.0661 34.1602 26.447 33.655 26.447C33.1498 26.447 32.7358 26.0661 32.7358 25.6015C32.7358 25.1216 33.1664 24.756 33.655 24.756C34.1519 24.7484 34.5742 25.1216 34.5742 25.6015ZM34.4252 25.6015C34.4252 25.2054 34.0773 24.8931 33.6467 24.8931C33.2244 24.8931 32.8766 25.2054 32.8766 25.6015C32.8766 25.9976 33.2244 26.3175 33.6467 26.3175C34.0773 26.3099 34.4252 25.99 34.4252 25.6015ZM34.0525 26.0737H33.8372C33.8289 26.028 33.7958 25.7843 33.7958 25.7767C33.7792 25.7234 33.7627 25.6929 33.6881 25.6929H33.5059V26.0737H33.3072V25.1216H33.6633C33.7875 25.1216 34.0277 25.1216 34.0277 25.373C34.0277 25.5482 33.9034 25.5863 33.8289 25.6091C33.9697 25.6167 33.978 25.7005 34.0028 25.8224C34.0111 25.8986 34.0277 26.028 34.0525 26.0737ZM33.8206 25.4034C33.8206 25.2739 33.7213 25.2739 33.6716 25.2739H33.5059V25.5405H33.6633C33.7958 25.5405 33.8206 25.4568 33.8206 25.4034ZM11.3702 14.5489C11.3702 14.3433 11.2542 14.1605 11.0638 14.0614L5.98734 11.3726C5.90453 11.3269 5.80516 11.304 5.70578 11.2964H5.65609C5.55672 11.2964 5.46563 11.3269 5.37453 11.3726L0.306406 14.0614C0.115938 14.1605 0 14.3509 0 14.5489L0.00828125 21.7853C0.00828125 21.8843 0.06625 21.9757 0.157344 22.029C0.248438 22.0823 0.364375 22.0823 0.46375 22.029L3.47813 20.437C3.66859 20.3304 3.78453 20.1476 3.78453 19.9495V16.5675C3.78453 16.3695 3.90047 16.179 4.09094 16.08L5.37453 15.4021C5.47391 15.3487 5.57328 15.3259 5.68094 15.3259C5.78859 15.3259 5.89625 15.3487 5.98734 15.4021L7.27094 16.08C7.46141 16.179 7.57734 16.3695 7.57734 16.5675V19.9495C7.57734 20.1476 7.69328 20.338 7.88375 20.437L10.8981 22.029C10.9892 22.0823 11.1134 22.0823 11.2045 22.029C11.2956 21.9833 11.3536 21.8843 11.3536 21.7853L11.3702 14.5489ZM39.1289 6.64992V20.0866C39.1289 20.2847 39.013 20.4751 38.8225 20.5741L33.7461 23.2706C33.5556 23.3696 33.3238 23.3696 33.1333 23.2706L28.0569 20.5741C27.8664 20.4751 27.7505 20.2847 27.7505 20.0866V14.6937C27.7505 14.4956 27.8664 14.3052 28.0569 14.2062L33.1333 11.5097C33.3238 11.4107 33.5556 11.4107 33.7461 11.5097L35.0131 12.18C35.1539 12.2562 35.3361 12.1571 35.3361 12.0124V4.85226C35.3361 4.63898 35.5845 4.50187 35.7916 4.60851L38.8142 6.16242C39.0047 6.25383 39.1289 6.44426 39.1289 6.64992ZM35.3195 16.4685C35.3195 16.4152 35.2864 16.3695 35.245 16.3466L33.5059 15.4173C33.4563 15.3945 33.3983 15.3945 33.3486 15.4173L31.6095 16.3466C31.5598 16.3695 31.535 16.4152 31.535 16.4685V18.3195C31.535 18.3728 31.5681 18.4185 31.6095 18.4413L33.3486 19.363C33.3983 19.3859 33.4563 19.3859 33.4977 19.363L35.2367 18.4413C35.2864 18.4185 35.3113 18.3728 35.3113 18.3195V16.4685H35.3195ZM52.6936 16.4152C52.8841 16.3161 53 16.1257 53 15.9277V14.6251C53 14.4271 52.8841 14.2366 52.6936 14.1376L47.6503 11.4411C47.4598 11.3421 47.228 11.3421 47.0375 11.4411L41.9611 14.1376C41.7706 14.2366 41.6547 14.4271 41.6547 14.6251V20.0181C41.6547 20.2237 41.7706 20.4066 41.9611 20.5056L47.0044 23.1487C47.1866 23.2478 47.4184 23.2478 47.6089 23.1487L50.6564 21.5872C50.8634 21.4806 50.8634 21.2064 50.6564 21.0997L45.5469 18.4032C45.4475 18.3499 45.3895 18.2585 45.3895 18.1595V16.4685C45.3895 16.3695 45.4475 16.278 45.5469 16.2247L47.1369 15.3792C47.228 15.3259 47.3522 15.3259 47.4433 15.3792L49.0333 16.2247C49.1244 16.278 49.1906 16.3695 49.1906 16.4685V17.7939C49.1906 18.0071 49.4473 18.1443 49.6544 18.0376L52.6936 16.4152ZM46.2922 16.6818C46.2591 16.7046 46.2342 16.7351 46.2342 16.7732V17.8091C46.2342 17.8472 46.2591 17.8853 46.2922 17.9005L47.2694 18.4185C47.3025 18.4413 47.3522 18.4413 47.3853 18.4185L48.3625 17.9005C48.3956 17.8777 48.4205 17.8472 48.4205 17.8091V16.7732C48.4205 16.7351 48.3956 16.697 48.3625 16.6818L47.3853 16.1638C47.3522 16.1409 47.3025 16.1409 47.2694 16.1638L46.2922 16.6818ZM25.2412 19.9952V14.6327C25.2412 14.4347 25.1088 14.2443 24.9183 14.1452L19.8584 11.464C19.6845 11.3726 19.4444 11.3573 19.2456 11.464L14.1858 14.1452C13.9953 14.2443 13.8628 14.4271 13.8628 14.6327V19.9952C13.8628 20.2085 14.0202 20.3913 14.1941 20.4827L19.2622 23.164C19.4609 23.2706 19.6928 23.263 19.875 23.164L24.9266 20.4827C25.0756 20.4066 25.1833 20.2771 25.2247 20.1247C25.233 20.0866 25.2412 20.0409 25.2412 19.9952ZM19.0883 10.4814L19.022 10.5195H19.1131L19.0883 10.4814ZM25.3986 20.3989L25.3655 20.3456V20.4142L25.3986 20.3989Z" fill="#C7359E" fill-opacity="0.67"/>
</svg>
