<svg width="54" height="41" viewBox="0 0 54 41" fill="none" xmlns="http://www.w3.org/2000/svg">
<path d="M27 8.36826C41.4619 8.36826 52.5825 14.1499 52.5825 20.5001C52.5825 26.8503 41.4534 32.6319 27 32.6319C12.5381 32.6319 1.4175 26.8503 1.4175 20.5001C1.4175 14.1499 12.5466 8.36826 27 8.36826ZM27 7.02295C12.0909 7.02295 0 13.0528 0 20.5001C0 27.9474 12.0909 33.9772 27 33.9772C41.9091 33.9772 54 27.9474 54 20.5001C54 13.0528 41.9091 7.02295 27 7.02295ZM18.4106 19.419C17.7441 22.6622 15.39 22.3259 12.4959 22.3259L13.6519 16.6724C16.8581 16.6724 19.035 16.344 18.4106 19.419ZM8.21813 28.0515H11.3147L12.0488 24.464C15.5166 24.464 17.6681 24.7042 19.6594 22.9345C21.8616 21.0126 22.4353 17.5933 20.8659 15.8796C20.0475 14.9827 18.7313 14.5423 16.9425 14.5423H10.9772L8.21813 28.0515ZM23.8866 10.9468H26.9663L26.2322 14.5343C28.89 14.5343 31.3538 14.3501 32.5434 15.3911C33.7922 16.4802 33.1931 17.8735 31.8431 24.4479H28.7213C30.0206 18.0897 30.2653 17.5612 29.7928 17.0808C29.3372 16.6163 28.2994 16.7124 25.7934 16.7124L24.2072 24.4479H21.1275L23.8866 10.9468ZM42.6094 19.419C41.9344 22.7103 39.5128 22.3259 36.6947 22.3259L37.8506 16.6724C41.0737 16.6724 43.2337 16.344 42.6094 19.419ZM32.4169 28.0515H35.5219L36.2559 24.464C39.9009 24.464 41.9175 24.6642 43.8666 22.9345C46.0688 21.0126 46.6425 17.5933 45.0731 15.8796C44.2547 14.9827 42.9384 14.5423 41.1497 14.5423H35.1844L32.4169 28.0515Z" fill="#C7359E" fill-opacity="0.67"/>
</svg>
