<svg width="45" height="45" viewBox="0 0 45 45" fill="none" xmlns="http://www.w3.org/2000/svg">
<path d="M36.7559 15.5743C36.2812 15.4161 35.8066 15.2667 35.332 15.1261C35.4111 14.8009 35.4814 14.4757 35.5518 14.1505C36.6328 8.91223 35.9209 4.70227 33.5215 3.3136C31.21 1.98645 27.4395 3.36633 23.625 6.6886C23.2471 7.01379 22.8779 7.35657 22.5264 7.69934C22.2891 7.47082 22.043 7.24231 21.7969 7.02258C17.7979 3.4718 13.79 1.97766 11.3906 3.37512C9.08789 4.71106 8.40234 8.67493 9.36914 13.632C9.46582 14.1241 9.57129 14.6075 9.69434 15.0997C9.13184 15.2579 8.57812 15.4337 8.05957 15.6183C3.36621 17.2443 0 19.8107 0 22.465C0 25.2072 3.58594 27.9581 8.46387 29.6281C8.85938 29.7599 9.25488 29.8917 9.65918 30.006C9.52734 30.5333 9.41309 31.0519 9.30762 31.588C8.38477 36.4659 9.10547 40.3331 11.4082 41.6603C13.7812 43.0314 17.7715 41.6251 21.6562 38.2238C21.9639 37.9513 22.2715 37.67 22.5791 37.3712C22.9658 37.7491 23.3701 38.1095 23.7744 38.4611C27.5361 41.6954 31.2539 43.005 33.5479 41.6779C35.9209 40.3068 36.6943 36.1495 35.6924 31.087C35.6133 30.7003 35.5254 30.3048 35.4287 29.9005C35.71 29.8214 35.9824 29.7335 36.2549 29.6456C41.3262 27.9669 45 25.2511 45 22.465C45 19.8019 41.5371 17.2179 36.7559 15.5743ZM24.8643 8.11243C28.1338 5.26477 31.1836 4.14856 32.5723 4.94836C34.0576 5.8009 34.6289 9.24622 33.6973 13.7726C33.6357 14.0714 33.5742 14.3614 33.4951 14.6515C31.5439 14.212 29.5664 13.8956 27.5801 13.7198C26.4375 12.0851 25.1895 10.5206 23.8359 9.05286C24.1787 8.72766 24.5127 8.42004 24.8643 8.11243ZM14.6953 27.0265C15.1436 27.7911 15.6006 28.5558 16.084 29.3029C14.7129 29.1534 13.3506 28.9337 12.0059 28.6437C12.3926 27.378 12.876 26.0685 13.4385 24.7325C13.8428 25.506 14.2559 26.2706 14.6953 27.0265ZM12.0322 16.4532C13.2979 16.172 14.6426 15.9435 16.04 15.7677C15.5742 16.4972 15.1172 17.2443 14.6865 18.0001C14.2559 18.7472 13.834 19.5118 13.4385 20.2853C12.8848 18.9757 12.4189 17.6925 12.0322 16.4532ZM14.4404 22.5089C15.0205 21.296 15.6533 20.1095 16.3213 18.9405C16.9893 17.7716 17.71 16.6378 18.4658 15.5216C19.7842 15.4249 21.1289 15.3722 22.5 15.3722C23.8711 15.3722 25.2246 15.4249 26.5342 15.5216C27.2812 16.629 27.9932 17.7628 28.6699 18.923C29.3467 20.0831 29.9795 21.2697 30.5771 22.4738C29.9883 23.6866 29.3555 24.882 28.6787 26.0597C28.0107 27.2286 27.2988 28.3624 26.5518 29.4874C25.2422 29.5841 23.8799 29.6281 22.5 29.6281C21.1201 29.6281 19.7842 29.5841 18.4922 29.505C17.7275 28.3888 17.0068 27.2462 16.3301 26.0773C15.6533 24.9083 15.0293 23.7218 14.4404 22.5089ZM30.3135 27.0089C30.7617 26.2355 31.1836 25.4532 31.5967 24.6622C32.1592 25.9366 32.6514 27.2286 33.082 28.5558C31.7197 28.8634 30.3398 29.1007 28.9512 29.2589C29.4258 28.5206 29.874 27.7648 30.3135 27.0089ZM31.5791 20.2853C31.166 19.5118 30.7441 18.7384 30.3047 17.9825C29.874 17.2355 29.4258 16.4972 28.96 15.7677C30.375 15.9435 31.7285 16.1808 32.9941 16.4708C32.5898 17.7716 32.1152 19.0372 31.5791 20.2853ZM22.5176 10.3976C23.4404 11.3995 24.3105 12.4542 25.1191 13.5441C23.3789 13.465 21.6299 13.465 19.8896 13.5441C20.751 12.4103 21.6387 11.3556 22.5176 10.3976ZM12.3223 5.00989C13.7988 4.14856 17.0771 5.37903 20.5312 8.43762C20.751 8.63098 20.9707 8.84192 21.1992 9.05286C19.8369 10.5206 18.5801 12.0851 17.4287 13.7198C15.4424 13.8956 13.4736 14.2032 11.5225 14.6339C11.4082 14.1857 11.3115 13.7286 11.2148 13.2716C10.3887 9.0177 10.9336 5.80969 12.3223 5.00989ZM10.1689 28.1779C9.7998 28.0724 9.43945 27.9581 9.0791 27.8351C7.20703 27.2462 5.08008 26.3146 3.54199 25.0929C2.6543 24.4777 2.05664 23.5284 1.88965 22.465C1.88965 20.8566 4.66699 18.7999 8.6748 17.4025C9.17578 17.2267 9.68555 17.0685 10.1953 16.9191C10.793 18.8263 11.5137 20.6984 12.3486 22.5089C11.5049 24.3458 10.7754 26.2443 10.1689 28.1779ZM20.417 36.7911C18.9668 38.1183 17.2881 39.173 15.46 39.8937C14.4844 40.3595 13.3594 40.4034 12.3574 40.0079C10.96 39.1993 10.3799 36.0968 11.1709 31.922C11.2676 31.4298 11.373 30.9376 11.4961 30.4542C13.4648 30.8761 15.4512 31.1661 17.4639 31.3155C18.624 32.9591 19.8984 34.5323 21.2607 36.0089C20.9795 36.2814 20.6982 36.545 20.417 36.7911ZM22.5703 34.6554C21.6738 33.6886 20.7773 32.6163 19.9072 31.465C20.751 31.5001 21.6211 31.5177 22.5 31.5177C23.4053 31.5177 24.293 31.5001 25.1719 31.4562C24.3633 32.5724 23.4932 33.6359 22.5703 34.6554ZM34.0576 37.2921C33.9785 38.3644 33.4512 39.3663 32.6074 40.0431C31.21 40.8517 28.2305 39.797 25.0137 37.0372C24.6445 36.7208 24.2754 36.3781 23.8975 36.0265C25.2422 34.5411 26.4814 32.9679 27.6064 31.3155C29.6191 31.1486 31.623 30.8409 33.6006 30.3927C33.6885 30.753 33.7676 31.1134 33.8379 31.465C34.2686 33.3634 34.3389 35.3409 34.0576 37.2921ZM35.6572 27.8439C35.4111 27.923 35.165 28.0021 34.9102 28.0724C34.2949 26.1564 33.5391 24.2843 32.6689 22.465C33.5127 20.672 34.2246 18.8263 34.8223 16.9366C35.2793 17.0685 35.7188 17.2091 36.1406 17.3497C40.2363 18.756 43.1104 20.8478 43.1104 22.4474C43.1104 24.17 40.043 26.3937 35.6572 27.8439ZM22.5 26.5255C24.7236 26.5255 26.5254 24.7238 26.5254 22.5001C26.5254 20.2765 24.7236 18.4747 22.5 18.4747C20.2764 18.4747 18.4746 20.2765 18.4746 22.5001C18.4746 24.7238 20.2764 26.5255 22.5 26.5255Z" fill="#E23B3B" fill-opacity="0.67"/>
</svg>
