<svg width="417" height="1040" viewBox="0 0 417 1040" fill="none" xmlns="http://www.w3.org/2000/svg">
<g filter="url(#filter0_f_5_22)">
<path fill-rule="evenodd" clip-rule="evenodd" d="M1016.29 567.471L1014.99 573.784L1013.58 580.067L1012.08 586.318L1010.47 592.536L1008.77 598.719L1006.98 604.867L1005.09 610.977L1003.12 617.048L1001.06 623.08L998.915 629.071L996.686 635.02L994.376 640.926L991.985 646.789L989.515 652.606L986.967 658.378L984.342 664.103L981.642 669.78L978.868 675.409L976.02 680.988L973.1 686.517L970.109 691.995L967.047 697.42L963.915 702.793L960.715 708.111L957.446 713.375L954.111 718.583L950.709 723.734L947.242 728.828L943.711 733.864L940.116 738.841L936.459 743.758L932.74 748.614L928.961 753.409L925.123 758.143L921.226 762.813L917.273 767.42L913.265 771.963L909.203 776.442L905.088 780.856L900.923 785.205L896.709 789.489L892.447 793.708L888.14 797.861L883.79 801.948L879.398 805.971L874.968 809.928L870.5 813.821L865.997 817.65L861.462 821.415L856.895 825.117L852.298 828.756L847.673 832.333L843.022 835.847L838.346 839.3L833.647 842.692L828.925 846.024L824.182 849.295L819.419 852.506L814.637 855.658L809.838 858.75L805.021 861.784L800.188 864.759L795.339 867.676L790.475 870.535L785.598 873.336L780.706 876.079L775.802 878.764L770.885 881.392L765.956 883.963L761.016 886.475L756.065 888.931L751.103 891.329L746.13 893.669L741.148 895.952L736.156 898.177L731.156 900.344L726.146 902.454L721.129 904.505L716.104 906.499L711.072 908.435L706.033 910.313L700.988 912.133L695.938 913.895L690.882 915.599L685.822 917.246L680.759 918.835L675.692 920.367L670.623 921.841L665.552 923.259L660.479 924.621L655.406 925.925L650.333 927.173L645.26 928.365L640.188 929.499L635.117 930.577L630.047 931.597L624.979 932.56L619.914 933.465L614.851 934.312L609.792 935.1L604.737 935.83L599.686 936.501L594.64 937.114L589.6 937.667L584.566 938.161L579.539 938.596L574.52 938.972L569.509 939.289L564.507 939.547L559.515 939.747L554.534 939.889L549.564 939.973L544.606 940L539.662 939.971L534.731 939.886L529.814 939.746L524.913 939.551L520.028 939.304L515.159 939.005L510.308 938.654L505.474 938.253L500.659 937.803L495.863 937.306L491.087 936.762L486.33 936.172L481.594 935.538L476.879 934.861L472.184 934.142L467.511 933.382L462.859 932.582L458.229 931.744L453.621 930.867L449.034 929.953L444.47 929.003L439.927 928.017L435.406 926.997L430.908 925.943L426.431 924.856L421.976 923.738L417.542 922.589L413.13 921.41L408.74 920.202L404.37 918.967L400.021 917.704L395.692 916.416L391.383 915.102L387.094 913.764L382.823 912.403L378.572 911.019L374.338 909.613L370.123 908.186L365.924 906.738L361.742 905.27L357.576 903.781L353.426 902.273L349.291 900.746L345.171 899.2L341.064 897.635L336.972 896.051L332.892 894.448L328.826 892.826L324.772 891.184L320.73 889.523L316.7 887.842L312.681 886.14L308.674 884.417L304.678 882.673L300.694 880.906L296.721 879.117L292.759 877.304L288.808 875.466L284.87 873.603L280.943 871.714L277.029 869.797L273.127 867.853L269.239 865.879L265.364 863.875L261.504 861.839L257.659 859.771L253.831 857.669L250.021 855.532L246.229 853.358L242.457 851.147L238.707 848.896L234.98 846.605L231.277 844.272L227.601 841.896L223.953 839.476L220.335 837.01L216.749 834.499L213.196 831.94L209.679 829.333L206.2 826.678L202.761 823.973L199.363 821.218L196.01 818.413L192.701 815.557L189.441 812.651L186.23 809.694L183.07 806.686L179.964 803.628L176.912 800.52L173.917 797.362L170.981 794.155L168.104 790.9L165.288 787.597L162.534 784.247L159.844 780.852L157.219 777.413L154.659 773.93L152.166 770.404L149.741 766.838L147.384 763.232L145.097 759.588L142.879 755.907L140.731 752.19L138.654 748.44L136.649 744.657L134.715 740.843L132.854 736.999L131.065 733.126L129.349 729.227L127.706 725.303L126.136 721.356L124.637 717.387L123.21 713.397L121.854 709.39L120.567 705.367L119.348 701.328L118.197 697.278L117.11 693.216L116.087 689.144L115.126 685.066L114.224 680.981L113.38 676.891L112.59 672.799L111.853 668.705L111.166 664.61L110.527 660.516L109.932 656.424L109.38 652.335L108.867 648.249L108.391 644.167L107.948 640.091L107.537 636.019L107.155 631.953L106.798 627.893L106.465 623.839L106.153 619.791L105.859 615.748L105.582 611.71L105.319 607.678L105.068 603.65L104.827 599.625L104.596 595.604L104.371 591.585L104.153 587.568L103.94 583.551L103.73 579.534L103.524 575.516L103.321 571.495L103.121 567.471L102.924 563.442L102.729 559.407L102.536 555.366L102.346 551.318L102.16 547.26L101.976 543.193L101.795 539.114L101.618 535.024L101.445 530.921L101.277 526.803L101.115 522.671L100.958 518.522L100.809 514.356L100.668 510.173L100.536 505.971L100.415 501.75L100.306 497.509L100.211 493.246L100.131 488.963L100.068 484.658L100.024 480.33L100 475.981L100 471.608L100.025 467.213L100.077 462.795L100.158 458.354L100.271 453.891L100.419 449.405L100.602 444.898L100.825 440.369L101.089 435.82L101.397 431.251L101.752 426.662L102.154 422.055L102.608 417.431L103.114 412.79L103.676 408.135L104.296 403.465L104.975 398.783L105.715 394.09L106.52 389.387L107.389 384.675L108.325 379.956L109.33 375.232L110.406 370.505L111.552 365.775L112.772 361.044L114.065 356.314L115.433 351.587L116.877 346.864L118.398 342.147L119.997 337.438L121.674 332.737L123.429 328.048L125.264 323.371L127.179 318.708L129.173 314.061L131.247 309.43L133.401 304.818L135.635 300.227L137.949 295.656L140.343 291.109L142.816 286.586L145.367 282.088L147.998 277.617L150.707 273.174L153.493 268.759L156.356 264.375L159.295 260.022L162.31 255.702L165.401 251.414L168.565 247.161L171.803 242.943L175.113 238.76L178.496 234.615L181.95 230.507L185.474 226.438L189.068 222.408L192.73 218.418L196.461 214.47L200.259 210.563L204.124 206.699L208.054 202.878L212.05 199.102L216.11 195.371L220.234 191.686L224.421 188.048L228.67 184.459L232.981 180.92L237.354 177.43L241.787 173.993L246.28 170.609L250.833 167.28L255.445 164.006L260.115 160.791L264.843 157.635L269.628 154.54L274.47 151.508L279.368 148.541L284.321 145.641L289.329 142.81L294.39 140.05L299.505 137.364L304.671 134.753L309.889 132.22L315.157 129.767L320.473 127.397L325.838 125.112L331.248 122.913L336.704 120.804L342.203 118.787L347.744 116.863L353.325 115.035L358.944 113.305L364.6 111.675L370.29 110.146L376.013 108.72L381.766 107.399L387.547 106.184L393.354 105.077L399.184 104.077L405.035 103.187L410.905 102.406L416.79 101.734L422.69 101.173L428.6 100.722L434.519 100.379L440.443 100.146L446.372 100.02L452.301 100L458.229 100.085L464.154 100.273L470.073 100.561L475.985 100.948L481.886 101.431L487.777 102.007L493.654 102.674L499.517 103.428L505.364 104.267L511.194 105.188L517.006 106.187L522.798 107.262L528.571 108.408L534.323 109.624L540.054 110.905L545.764 112.248L551.453 113.649L557.121 115.106L562.767 116.616L568.394 118.173L574 119.777L579.586 121.423L585.155 123.108L590.705 124.829L596.24 126.584L601.759 128.369L607.264 130.183L612.756 132.022L618.238 133.884L623.71 135.767L629.174 137.67L634.632 139.589L640.086 141.525L645.537 143.475L650.987 145.438L656.438 147.414L661.892 149.401L667.35 151.4L672.814 153.409L678.285 155.43L683.765 157.461L689.256 159.504L694.759 161.559L700.274 163.628L705.803 165.711L711.346 167.809L716.906 169.925L722.481 172.059L728.073 174.214L733.681 176.391L739.307 178.593L744.95 180.821L750.61 183.078L756.286 185.365L761.978 187.686L767.685 190.043L773.407 192.439L779.142 194.877L784.889 197.358L790.645 199.886L796.41 202.465L802.181 205.096L807.956 207.783L813.732 210.528L819.507 213.336L825.278 216.207L831.041 219.147L836.793 222.156L842.531 225.239L848.251 228.397L853.948 231.634L859.619 234.951L865.259 238.351L870.864 241.837L876.43 245.41L881.951 249.072L887.423 252.825L892.842 256.67L898.202 260.608L903.499 264.641L908.727 268.77L913.882 272.994L918.96 277.315L923.955 281.732L928.862 286.246L933.679 290.855L938.4 295.559L943.021 300.357L947.539 305.249L951.949 310.232L956.25 315.304L960.436 320.465L964.506 325.712L968.456 331.042L972.284 336.455L975.985 341.948L979.559 347.517L983.002 353.162L986.312 358.878L989.486 364.664L992.523 370.516L995.421 376.432L998.178 382.409L1000.79 388.443L1003.26 394.531L1005.59 400.671L1007.77 406.858L1009.81 413.09L1011.69 419.363L1013.43 425.674L1015.03 432.019L1016.47 438.395L1017.77 444.799L1018.93 451.227L1019.93 457.676L1020.79 464.143L1021.51 470.623L1022.09 477.115L1022.52 483.614L1022.82 490.118L1022.98 496.623L1023 503.126L1022.89 509.625L1022.65 516.116L1022.28 522.598L1021.78 529.066L1021.16 535.519L1020.41 541.954L1019.55 548.369L1018.58 554.761L1017.49 561.129L1016.29 567.471Z" fill="url(#paint0_linear_5_22)" fill-opacity="0.42"/>
</g>
<defs>
<filter id="filter0_f_5_22" x="0" y="0" width="1123" height="1040" filterUnits="userSpaceOnUse" color-interpolation-filters="sRGB">
<feFlood flood-opacity="0" result="BackgroundImageFix"/>
<feBlend mode="normal" in="SourceGraphic" in2="BackgroundImageFix" result="shape"/>
<feGaussianBlur stdDeviation="50" result="effect1_foregroundBlur_5_22"/>
</filter>
<linearGradient id="paint0_linear_5_22" x1="795.5" y1="204.5" x2="134.5" y2="863.5" gradientUnits="userSpaceOnUse">
<stop stop-color="#6668EB"/>
<stop offset="1" stop-color="#E23B3B" stop-opacity="0"/>
</linearGradient>
</defs>
</svg>
