<svg width="787" height="939" viewBox="0 0 787 939" fill="none" xmlns="http://www.w3.org/2000/svg">
<g filter="url(#filter0_f_78_465)">
<path fill-rule="evenodd" clip-rule="evenodd" d="M280.293 66.4706L278.99 72.7837L277.583 79.0666L276.076 85.3178L274.471 91.5359L272.771 97.7192L270.978 103.867L269.093 109.977L267.12 116.048L265.06 122.08L262.915 128.071L260.686 134.02L258.376 139.926L255.985 145.789L253.515 151.606L250.967 157.378L248.342 163.103L245.642 168.78L242.868 174.409L240.02 179.988L237.1 185.517L234.109 190.995L231.047 196.42L227.915 201.793L224.715 207.111L221.446 212.375L218.111 217.583L214.709 222.734L211.242 227.828L207.711 232.864L204.116 237.841L200.459 242.758L196.74 247.614L192.961 252.409L189.123 257.143L185.226 261.813L181.273 266.42L177.265 270.963L173.203 275.442L169.088 279.856L164.923 284.205L160.709 288.489L156.447 292.708L152.14 296.861L147.79 300.948L143.398 304.971L138.968 308.928L134.5 312.821L129.997 316.65L125.462 320.415L120.895 324.117L116.298 327.756L111.673 331.333L107.022 334.847L102.346 338.3L97.6468 341.692L92.925 345.024L88.1821 348.295L83.4193 351.506L78.6374 354.658L73.8376 357.75L69.0208 360.784L64.1876 363.759L59.3389 366.676L54.4753 369.535L49.5977 372.336L44.7064 375.079L39.8021 377.764L34.8853 380.392L29.9565 382.963L25.0161 385.475L20.0646 387.931L15.1025 390.329L10.1301 392.669L5.14783 394.952L0.156189 397.177L-4.84442 399.344L-9.8537 401.454L-14.871 403.505L-19.8959 405.499L-24.9281 407.435L-29.9669 409.313L-35.0118 411.133L-40.0623 412.895L-45.1179 414.599L-50.1778 416.246L-55.2414 417.835L-60.3082 419.367L-65.3774 420.841L-70.4484 422.259L-75.5206 423.621L-80.5935 424.925L-85.6667 426.173L-90.7397 427.365L-95.812 428.499L-100.883 429.577L-105.953 430.597L-111.021 431.56L-116.086 432.465L-121.149 433.312L-126.208 434.1L-131.263 434.83L-136.314 435.501L-141.36 436.114L-146.4 436.667L-151.434 437.161L-156.461 437.596L-161.48 437.972L-166.491 438.289L-171.493 438.547L-176.485 438.747L-181.466 438.889L-186.436 438.973L-191.394 439L-196.338 438.971L-201.269 438.886L-206.186 438.746L-211.087 438.551L-215.972 438.304L-220.841 438.005L-225.692 437.654L-230.526 437.253L-235.341 436.803L-240.137 436.306L-244.913 435.762L-249.67 435.172L-254.406 434.538L-259.121 433.861L-263.816 433.142L-268.489 432.382L-273.141 431.582L-277.771 430.744L-282.379 429.867L-286.966 428.953L-291.53 428.003L-296.073 427.017L-300.594 425.997L-305.092 424.943L-309.569 423.856L-314.024 422.738L-318.458 421.589L-322.87 420.41L-327.26 419.202L-331.63 417.967L-335.979 416.704L-340.308 415.416L-344.617 414.102L-348.906 412.764L-353.177 411.403L-357.428 410.019L-361.662 408.613L-365.877 407.186L-370.076 405.738L-374.258 404.27L-378.424 402.781L-382.574 401.273L-386.709 399.746L-390.829 398.2L-394.936 396.635L-399.028 395.051L-403.108 393.448L-407.174 391.826L-411.228 390.184L-415.27 388.523L-419.3 386.842L-423.319 385.14L-427.326 383.417L-431.322 381.673L-435.306 379.906L-439.279 378.117L-443.241 376.304L-447.192 374.466L-451.13 372.603L-455.057 370.714L-458.971 368.797L-462.873 366.853L-466.761 364.879L-470.636 362.875L-474.496 360.839L-478.341 358.771L-482.169 356.669L-485.979 354.532L-489.771 352.358L-493.543 350.147L-497.293 347.896L-501.02 345.605L-504.723 343.272L-508.399 340.896L-512.047 338.476L-515.665 336.01L-519.251 333.499L-522.804 330.94L-526.321 328.333L-529.8 325.678L-533.239 322.973L-536.637 320.218L-539.99 317.413L-543.299 314.557L-546.559 311.651L-549.77 308.694L-552.93 305.686L-556.036 302.628L-559.088 299.52L-562.083 296.362L-565.019 293.155L-567.896 289.9L-570.712 286.597L-573.466 283.247L-576.156 279.852L-578.781 276.413L-581.341 272.93L-583.834 269.404L-586.259 265.838L-588.616 262.232L-590.903 258.588L-593.121 254.907L-595.269 251.19L-597.346 247.44L-599.351 243.657L-601.285 239.843L-603.146 235.999L-604.935 232.126L-606.651 228.227L-608.294 224.303L-609.864 220.356L-611.363 216.387L-612.79 212.397L-614.146 208.39L-615.433 204.367L-616.652 200.328L-617.803 196.278L-618.89 192.216L-619.913 188.144L-620.874 184.066L-621.776 179.981L-622.62 175.891L-623.41 171.799L-624.147 167.705L-624.834 163.61L-625.473 159.516L-626.068 155.424L-626.62 151.335L-627.133 147.249L-627.609 143.167L-628.052 139.091L-628.463 135.019L-628.845 130.953L-629.202 126.893L-629.535 122.839L-629.847 118.791L-630.141 114.748L-630.418 110.71L-630.681 106.678L-630.932 102.65L-631.173 98.6252L-631.404 94.604L-631.629 90.5852L-631.847 86.5679L-632.06 82.5511L-632.27 78.5341L-632.476 74.5157L-632.679 70.4948L-632.879 66.4706L-633.076 62.4418L-633.271 58.4074L-633.464 54.3664L-633.654 50.3177L-633.84 46.2602L-634.024 42.1927L-634.205 38.1143L-634.382 34.024L-634.555 29.9205L-634.723 25.803L-634.885 21.6705L-635.042 17.5219L-635.191 13.3565L-635.332 9.17319L-635.464 4.97125L-635.585 0.749939L-635.694 -3.49149L-635.789 -7.75363L-635.869 -12.0371L-635.932 -16.3423L-635.976 -20.6696L-636 -25.0195L-636 -29.392L-635.975 -33.7872L-635.923 -38.2053L-635.842 -42.6461L-635.729 -47.1093L-635.581 -51.5948L-635.398 -56.1021L-635.175 -60.6308L-634.911 -65.1801L-634.603 -69.7494L-634.248 -74.338L-633.846 -78.9448L-633.392 -83.569L-632.886 -88.2095L-632.324 -92.8651L-631.704 -97.5346L-631.025 -102.217L-630.285 -106.91L-629.48 -111.613L-628.611 -116.325L-627.675 -121.044L-626.67 -125.768L-625.594 -130.495L-624.448 -135.225L-623.228 -139.956L-621.935 -144.686L-620.567 -149.413L-619.123 -154.136L-617.602 -158.853L-616.003 -163.562L-614.326 -168.263L-612.571 -172.952L-610.736 -177.629L-608.821 -182.292L-606.827 -186.939L-604.753 -191.57L-602.599 -196.182L-600.365 -200.773L-598.051 -205.344L-595.657 -209.891L-593.184 -214.414L-590.633 -218.912L-588.002 -223.383L-585.293 -227.826L-582.507 -232.241L-579.644 -236.625L-576.705 -240.978L-573.69 -245.298L-570.599 -249.586L-567.435 -253.839L-564.197 -258.057L-560.887 -262.24L-557.504 -266.385L-554.05 -270.493L-550.526 -274.562L-546.932 -278.592L-543.27 -282.582L-539.539 -286.53L-535.741 -290.437L-531.876 -294.301L-527.946 -298.122L-523.95 -301.898L-519.89 -305.629L-515.766 -309.314L-511.579 -312.952L-507.33 -316.541L-503.019 -320.08L-498.646 -323.57L-494.213 -327.007L-489.72 -330.391L-485.167 -333.72L-480.555 -336.994L-475.885 -340.209L-471.157 -343.365L-466.372 -346.46L-461.53 -349.492L-456.632 -352.459L-451.679 -355.359L-446.671 -358.19L-441.61 -360.95L-436.495 -363.636L-431.329 -366.247L-426.111 -368.78L-420.843 -371.233L-415.527 -373.603L-410.162 -375.888L-404.752 -378.087L-399.296 -380.196L-393.797 -382.213L-388.256 -384.137L-382.675 -385.965L-377.056 -387.695L-371.4 -389.325L-365.71 -390.854L-359.987 -392.28L-354.234 -393.601L-348.453 -394.816L-342.646 -395.923L-336.816 -396.923L-330.965 -397.813L-325.095 -398.594L-319.21 -399.266L-313.31 -399.827L-307.4 -400.278L-301.481 -400.621L-295.557 -400.854L-289.628 -400.98L-283.699 -401L-277.771 -400.915L-271.846 -400.727L-265.927 -400.439L-260.015 -400.052L-254.114 -399.569L-248.223 -398.993L-242.346 -398.326L-236.483 -397.572L-230.636 -396.733L-224.806 -395.812L-218.994 -394.813L-213.202 -393.738L-207.429 -392.592L-201.677 -391.376L-195.946 -390.095L-190.236 -388.752L-184.547 -387.351L-178.879 -385.894L-173.233 -384.384L-167.606 -382.827L-162 -381.223L-156.414 -379.577L-150.845 -377.892L-145.295 -376.171L-139.76 -374.416L-134.241 -372.631L-128.736 -370.817L-123.244 -368.978L-117.762 -367.116L-112.29 -365.233L-106.826 -363.33L-101.368 -361.411L-95.9141 -359.475L-90.463 -357.525L-85.0128 -355.562L-79.5618 -353.586L-74.1082 -351.599L-68.6501 -349.6L-63.1863 -347.591L-57.715 -345.57L-52.2346 -343.539L-46.7438 -341.496L-41.2415 -339.441L-35.7262 -337.372L-30.1972 -335.289L-24.6535 -333.191L-19.0943 -331.075L-13.5191 -328.941L-7.92731 -326.786L-2.31866 -324.609L3.30707 -322.407L8.94989 -320.179L14.6096 -317.922L20.2858 -315.635L25.978 -313.314L31.6855 -310.957L37.4072 -308.561L43.142 -306.123L48.8886 -303.642L54.6452 -301.114L60.4101 -298.535L66.1812 -295.904L71.9562 -293.217L77.7325 -290.472L83.5074 -287.664L89.2781 -284.793L95.0411 -281.853L100.793 -278.844L106.531 -275.761L112.251 -272.603L117.948 -269.366L123.619 -266.049L129.259 -262.649L134.864 -259.163L140.43 -255.59L145.951 -251.928L151.423 -248.175L156.842 -244.33L162.202 -240.392L167.499 -236.359L172.727 -232.23L177.882 -228.006L182.96 -223.685L187.955 -219.268L192.862 -214.754L197.679 -210.145L202.4 -205.441L207.021 -200.643L211.539 -195.751L215.949 -190.768L220.25 -185.696L224.436 -180.535L228.506 -175.288L232.456 -169.958L236.284 -164.545L239.985 -159.052L243.559 -153.483L247.002 -147.838L250.312 -142.122L253.486 -136.336L256.523 -130.484L259.421 -124.568L262.178 -118.591L264.793 -112.557L267.265 -106.469L269.591 -100.329L271.772 -94.1421L273.806 -87.9102L275.694 -81.6372L277.434 -75.3263L279.028 -68.981L280.473 -62.6047L281.773 -56.2008L282.925 -49.7726L283.932 -43.3237L284.794 -36.8572L285.513 -30.3766L286.089 -23.885L286.524 -17.3859L286.82 -10.8822L286.978 -4.37717L287 2.12625L286.889 8.62509L286.647 15.1165L286.275 21.5977L285.778 28.066L285.157 34.519L284.414 40.954L283.554 47.3689L282.578 53.7613L281.49 60.1292L280.293 66.4706Z" fill="url(#paint0_linear_78_465)" fill-opacity="0.42"/>
</g>
<defs>
<filter id="filter0_f_78_465" x="-1136" y="-901" width="1923" height="1840" filterUnits="userSpaceOnUse" color-interpolation-filters="sRGB">
<feFlood flood-opacity="0" result="BackgroundImageFix"/>
<feBlend mode="normal" in="SourceGraphic" in2="BackgroundImageFix" result="shape"/>
<feGaussianBlur stdDeviation="250" result="effect1_foregroundBlur_78_465"/>
</filter>
<linearGradient id="paint0_linear_78_465" x1="59.5" y1="-296.5" x2="-601.5" y2="362.5" gradientUnits="userSpaceOnUse">
<stop stop-color="#AE2FF6"/>
<stop offset="1" stop-color="#E23B3B"/>
</linearGradient>
</defs>
</svg>
